<svg width="32" height="32" viewBox="0 0 32 32" fill="none" xmlns="http://www.w3.org/2000/svg">
<g clip-path="url(#clip0_1659_3763)">
<path d="M16.0006 16H10.1057C9.8194 16 9.58727 15.768 9.58727 15.4816V14.2484C9.58727 14.0859 9.66902 13.94 9.79365 13.8357C10.4165 13.3144 10.7719 12.4844 10.622 11.5802C10.4639 10.6269 9.71508 9.83798 8.76902 9.64066C7.21452 9.31648 5.84608 10.4942 5.84608 11.9915C5.84608 12.7325 6.18158 13.3947 6.70858 13.8357C6.83308 13.9399 6.91496 14.086 6.91496 14.2484V15.4815C6.91496 15.7678 6.6829 15.9999 6.39652 15.9999H1.57058C0.980209 15.9999 0.501709 15.5214 0.501709 14.931V1.56985C0.501709 0.979477 0.980209 0.500977 1.57058 0.500977H14.9318C15.5221 0.500977 16.0006 0.979477 16.0006 1.56985V6.39591C16.0006 6.68223 16.2327 6.91435 16.5191 6.91435H17.7522C17.9145 6.91435 18.0606 6.83254 18.1649 6.70798C18.606 6.18091 19.268 5.84548 20.009 5.84548C21.5064 5.84548 22.6841 7.21385 22.3599 8.76841C22.1626 9.71448 21.3738 10.4633 20.4203 10.6214C19.5162 10.7713 18.6861 10.4159 18.1649 9.79304C18.0606 9.66848 17.9146 9.58666 17.7521 9.58666H16.519C16.2326 9.58666 16.0005 9.81873 16.0005 10.1051V16H16.0006Z" fill="#FFD782"/>
<path d="M16.0007 15.9999V10.105C16.0007 9.81866 16.2327 9.58654 16.5191 9.58654H17.7523C17.9148 9.58654 18.0607 9.66829 18.165 9.79291C18.6864 10.4158 19.5164 10.7712 20.4205 10.6212C21.3739 10.4632 22.1627 9.71435 22.36 8.76829C22.6842 7.21379 21.5065 5.84535 20.0092 5.84535C19.2682 5.84535 18.606 6.18085 18.165 6.70785C18.0609 6.83235 17.9147 6.91423 17.7524 6.91423H16.5191C16.2328 6.91423 16.0007 6.68216 16.0007 6.39579V1.56985C16.0007 0.979477 16.4792 0.500977 17.0695 0.500977H30.4307C31.0211 0.500977 31.4996 0.979477 31.4996 1.56985V14.931C31.4996 15.5214 31.0211 15.9999 30.4307 15.9999H25.6047C25.3184 15.9999 25.0862 16.232 25.0862 16.5184V17.7515C25.0862 17.9138 25.168 18.0599 25.2926 18.1642C25.8196 18.6052 26.1551 19.2673 26.1551 20.0083C26.1551 21.5057 24.7867 22.6834 23.2322 22.3592C22.2861 22.1619 21.5373 21.373 21.3792 20.4196C21.2293 19.5155 21.5847 18.6854 22.2075 18.1642C22.3321 18.0599 22.4139 17.9139 22.4139 17.7514V16.5182C22.4139 16.2319 22.1819 15.9998 21.8955 15.9998H16.0006L16.0007 15.9999Z" fill="#FF6464"/>
<path d="M16.0007 16H21.8956C22.1819 16 22.4141 16.2321 22.4141 16.5184V17.7516C22.4141 17.9141 22.3323 18.0601 22.2077 18.1644C21.5848 18.6857 21.2294 19.5156 21.3794 20.4198C21.5374 21.3732 22.2862 22.1621 23.2323 22.3594C24.7868 22.6836 26.1552 21.5059 26.1552 20.0085C26.1552 19.2675 25.8197 18.6054 25.2927 18.1644C25.1682 18.0602 25.0863 17.9141 25.0863 17.7517V16.5184C25.0863 16.2321 25.3184 16 25.6047 16H30.4308C31.0212 16 31.4997 16.4785 31.4997 17.0689V30.4301C31.4997 31.0204 31.0212 31.4989 30.4308 31.4989H17.0696C16.4792 31.4989 16.0007 31.0204 16.0007 30.4301V25.604C16.0007 25.3177 15.7687 25.0856 15.4823 25.0856H14.2492C14.0869 25.0856 13.9407 25.1674 13.8365 25.2919C13.3954 25.819 12.7334 26.1545 11.9924 26.1545C10.495 26.1545 9.31724 24.7861 9.64149 23.2316C9.83874 22.2855 10.6276 21.5367 11.5811 21.3786C12.4852 21.2287 13.3152 21.5841 13.8365 22.2069C13.9408 22.3315 14.0867 22.4133 14.2492 22.4133H15.4824C15.7687 22.4133 16.0009 22.1812 16.0009 21.8949V16H16.0007Z" fill="#C3E678"/>
<path d="M16.0006 15.9999V21.8949C16.0006 22.1812 15.7686 22.4133 15.4822 22.4133H14.249C14.0865 22.4133 13.9406 22.3316 13.8363 22.2069C13.315 21.5841 12.485 21.2287 11.5808 21.3786C10.6275 21.5367 9.83859 22.2855 9.64127 23.2316C9.31709 24.7861 10.4948 26.1545 11.9921 26.1545C12.7331 26.1545 13.3953 25.819 13.8363 25.2919C13.9405 25.1674 14.0866 25.0856 14.249 25.0856H15.4821C15.7684 25.0856 16.0005 25.3176 16.0005 25.604V30.4301C16.0005 31.0204 15.522 31.4989 14.9316 31.4989H1.57046C0.980087 31.4989 0.501587 31.0204 0.501587 30.4301V17.0689C0.501587 16.4785 0.980087 16 1.57046 16H6.39652C6.68284 16 6.91496 15.7679 6.91496 15.4816V14.2484C6.91496 14.0861 6.83315 13.94 6.70859 13.8358C6.18152 13.3947 5.84609 12.7326 5.84609 11.9916C5.84609 10.4943 7.21446 9.31651 8.76902 9.64076C9.71509 9.83801 10.4639 10.6269 10.622 11.5803C10.7719 12.4844 10.4165 13.3145 9.79365 13.8358C9.66909 13.9401 9.58727 14.086 9.58727 14.2485V15.4817C9.58727 15.768 9.81934 16.0001 10.1057 16.0001H16.0007V15.9999H16.0006Z" fill="#00D2FF"/>
<path d="M32 1.56994C32 0.70425 31.2958 0 30.4301 0H17.0689C16.6562 0 16.2805 0.16025 16 0.421562C15.7195 0.16025 15.3437 0 14.9311 0H1.56994C0.70425 0 0 0.70425 0 1.56994V14.9311C0 15.3437 0.16025 15.7195 0.421562 16C0.16025 16.2805 0 16.6562 0 17.0689V30.4301C0 31.2958 0.70425 32 1.56994 32H14.9311C15.3438 32 15.7195 31.8398 16 31.5784C16.2805 31.8397 16.6562 32 17.0689 32H30.4301C31.2958 32 32 31.2958 32 30.4301V17.0689C32 16.6562 31.8398 16.2805 31.5784 16C31.8397 15.7195 32 15.3437 32 14.9311V1.56994ZM17.0689 1.00206H30.4301C30.7432 1.00206 30.9979 1.25681 30.9979 1.56994V14.9311C30.9979 15.2442 30.7432 15.499 30.4301 15.499H25.604C25.0419 15.499 24.5846 15.9564 24.5846 16.5184V17.7516C24.5846 18.0529 24.7252 18.3434 24.9704 18.5485C25.494 18.9868 25.7391 19.6557 25.6259 20.3379C25.5019 21.0858 24.9012 21.7153 24.165 21.8689C23.5771 21.9913 23.0034 21.8557 22.5494 21.4867C22.1021 21.1231 21.8455 20.5842 21.8455 20.0084C21.8455 19.4439 22.0945 18.9118 22.5285 18.5486C22.7737 18.3434 22.9144 18.0529 22.9144 17.7516V16.5184C22.9144 15.9563 22.457 15.499 21.8949 15.499H16.5011V10.1051C16.5011 10.0956 16.5089 10.0878 16.5184 10.0878L17.7473 10.0872C17.7508 10.0883 17.7641 10.0956 17.7801 10.1146C18.4484 10.9132 19.4661 11.2874 20.5018 11.1156C21.6664 10.9225 22.6101 10.0203 22.8498 8.87069C23.0325 7.99469 22.8191 7.10088 22.2643 6.41838C21.7094 5.73588 20.8871 5.3445 20.0084 5.3445C19.1464 5.3445 18.3341 5.72437 17.78 6.38662C17.7642 6.4055 17.7508 6.41287 17.7516 6.41344H16.5184C16.5089 6.41344 16.5011 6.40562 16.5011 6.39606V1.56994C16.5011 1.25681 16.7557 1.00206 17.0689 1.00206ZM1.00206 1.56994C1.00206 1.25681 1.25681 1.00206 1.56994 1.00206H14.9311C15.2442 1.00206 15.499 1.25681 15.499 1.56994V6.396C15.499 6.95812 15.9564 7.41544 16.5184 7.41544H17.7516C18.0529 7.41544 18.3433 7.27481 18.5485 7.02962C18.9118 6.5955 19.4439 6.34656 20.0084 6.34656C20.5843 6.34656 21.1231 6.60319 21.4868 7.05056C21.8558 7.50444 21.9915 8.07825 21.8689 8.66613C21.7154 9.40231 21.0858 10.0031 20.3379 10.1271C19.6556 10.2404 18.9868 9.99513 18.5486 9.4715C18.3434 9.22631 18.0529 9.08562 17.7517 9.08562H16.5185C15.9564 9.08562 15.4991 9.543 15.4991 10.1051V15.4989H10.1052C10.0956 15.4989 10.0878 15.4911 10.0878 15.4816L10.0872 14.2527C10.0883 14.2492 10.0957 14.2359 10.1147 14.2199C10.9133 13.5516 11.2875 12.5342 11.1157 11.4983C10.9226 10.3336 10.0204 9.38994 8.87075 9.15019C7.99475 8.9675 7.10094 9.18087 6.41844 9.73569C5.73594 10.2906 5.34456 11.1129 5.34456 11.9916C5.34456 12.8536 5.72437 13.6659 6.38669 14.2201C6.40575 14.2359 6.41306 14.2498 6.4135 14.2484V15.4816C6.4135 15.4911 6.40569 15.4989 6.39612 15.4989H1.56994C1.25681 15.4989 1.00206 15.2442 1.00206 14.9311V1.56994ZM14.9311 30.9979H1.56994C1.25681 30.9979 1.00206 30.7432 1.00206 30.4301V17.0689C1.00206 16.7557 1.25681 16.501 1.56994 16.501H6.396C6.95819 16.501 7.41544 16.0436 7.41544 15.4816V14.2484C7.41544 13.9471 7.27481 13.6566 7.02962 13.4515C6.5955 13.0882 6.34656 12.5561 6.34656 11.9916C6.34656 11.4158 6.60319 10.8769 7.05056 10.5132C7.5045 10.1442 8.07813 10.0086 8.66613 10.1311C9.40231 10.2846 10.0031 10.9142 10.1271 11.6621C10.2402 12.3442 9.99506 13.0131 9.4715 13.4514C9.22631 13.6566 9.08562 13.9471 9.08562 14.2483V15.4815C9.08562 16.0436 9.543 16.5009 10.1051 16.5009H15.4989V21.8948C15.4989 21.9044 15.4911 21.9122 15.4816 21.9122L14.2528 21.9128C14.2493 21.9117 14.2359 21.9043 14.22 21.8854C13.6659 21.2232 12.8536 20.8433 11.9916 20.8433C11.1129 20.8433 10.2906 21.2348 9.73575 21.9173C9.18094 22.5998 8.96756 23.4936 9.15019 24.3696C9.38994 25.5193 10.3335 26.4214 11.4982 26.6146C12.5339 26.7861 13.5516 26.4121 14.2201 25.6134C14.2359 25.5946 14.2492 25.5872 14.2484 25.5866H15.4815C15.4911 25.5866 15.4989 25.5944 15.4989 25.604V30.4301C15.4989 30.7432 15.2442 30.9979 14.9311 30.9979ZM30.9979 30.4301C30.9979 30.7432 30.7432 30.9979 30.4301 30.9979H17.0689C16.7557 30.9979 16.501 30.7432 16.501 30.4301V25.604C16.501 25.0419 16.0436 24.5846 15.4816 24.5846H14.2484C13.9471 24.5846 13.6567 24.7252 13.4516 24.9704C13.0133 25.494 12.3444 25.7392 11.6622 25.626C10.9143 25.502 10.2848 24.9012 10.1312 24.1651C10.0086 23.5772 10.1443 23.0034 10.5133 22.5495C10.8769 22.1021 11.4158 21.8455 11.9916 21.8455C12.5561 21.8455 13.0882 22.0945 13.4515 22.5286C13.6567 22.7738 13.9471 22.9144 14.2484 22.9144H15.4816C16.0438 22.9144 16.501 22.457 16.501 21.8949V16.5011H21.8949C21.9045 16.5011 21.9123 16.5089 21.9123 16.5184L21.9128 17.7472C21.9118 17.7507 21.9044 17.7641 21.8854 17.78C21.2232 18.3341 20.8434 19.1464 20.8434 20.0084C20.8434 20.8871 21.2348 21.7094 21.9174 22.2642C22.4399 22.689 23.0862 22.9137 23.7536 22.9137C23.9579 22.9137 24.1643 22.8926 24.3696 22.8498C25.5193 22.6101 26.4214 21.6665 26.6146 20.5018C26.7864 19.4659 26.4121 18.4484 25.6135 17.7799C25.5945 17.7641 25.5876 17.7513 25.5867 17.7516V16.5184C25.5867 16.5089 25.5945 16.5011 25.6041 16.5011H30.4301C30.7432 16.5011 30.998 16.7558 30.998 17.0689V30.4301L30.9979 30.4301Z" fill="#0A0A0A"/>
</g>
<defs>
<clipPath id="clip0_1659_3763">
<rect width="32" height="32" fill="white"/>
</clipPath>
</defs>
</svg>
